<?xml version="1.0" standalone="no"?>
<!DOCTYPE svg PUBLIC "-//W3C//DTD SVG 20010904//EN"
 "http://www.w3.org/TR/2001/REC-SVG-20010904/DTD/svg10.dtd">
<svg version="1.0" xmlns="http://www.w3.org/2000/svg"
 width="300.000000pt" height="50.000000pt" viewBox="0 0 500.000000 500.000000"
 preserveAspectRatio="xMidYMid meet">
<metadata>
Created by potrace 1.16, written by Peter Selinger 2001-2019
</metadata>
<g transform="translate(0.000000,500.000000) scale(0.100000,-0.100000)"
fill="#000000" stroke="none">
<path d="M1333 3491 c-151 -52 -221 -167 -195 -320 6 -37 14 -74 17 -82 4 -11
-7 -18 -42 -27 -156 -41 -239 -213 -168 -351 63 -124 206 -179 343 -132 41 14
52 15 52 4 0 -9 16 -13 55 -13 l55 0 0 94 c0 114 10 130 77 124 23 -2 45 1 47
7 2 5 6 8 8 5 12 -11 98 -170 98 -180 0 -6 -23 -56 -50 -111 l-51 -100 62 3
62 3 106 202 106 203 3 -205 2 -205 50 0 50 0 0 91 c0 69 3 89 13 85 85 -35
139 -31 192 15 43 38 59 86 51 151 -5 39 -4 49 6 46 9 -3 15 -34 18 -96 7
-116 22 -137 105 -137 65 0 80 11 65 49 l-10 28 29 -30 c82 -81 256 -59 304
39 l17 34 0 -57 0 -58 55 0 55 0 0 100 0 100 80 0 80 0 0 -41 c0 -114 109
-192 226 -160 46 12 94 46 94 65 0 7 -15 19 -33 28 -28 13 -36 14 -52 2 -27
-20 -89 -18 -108 4 -33 36 -22 42 82 42 l99 0 7 -31 c9 -41 66 -95 114 -110
50 -15 120 -5 163 24 44 30 46 50 5 69 -28 13 -36 14 -52 2 -27 -20 -89 -18
-108 4 -33 36 -22 42 83 42 l99 0 10 -38 c17 -62 83 -112 149 -112 15 0 44 9
65 20 31 17 37 17 37 5 0 -11 12 -15 50 -15 l50 0 0 260 0 260 -50 0 -50 0 0
-121 0 -121 -23 15 c-62 40 -148 28 -195 -29 l-29 -35 -17 25 c-50 77 -186 84
-256 12 l-33 -34 -31 33 c-75 80 -216 64 -273 -30 l-18 -30 -3 48 -3 47 -80 0
-80 0 3 48 3 47 88 3 88 3 -3 47 -3 47 -142 3 -143 3 0 -152 0 -152 -23 34
c-64 95 -200 115 -287 43 l-30 -26 0 31 c0 29 -3 31 -35 31 l-35 0 0 55 0 55
-50 0 -50 0 0 -55 c0 -52 -1 -55 -25 -55 -20 0 -25 -5 -25 -26 l0 -26 -30 25
c-52 44 -105 44 -192 -1 -5 -2 -8 3 -8 12 0 14 -15 16 -99 16 l-99 0 -33 -75
c-19 -41 -37 -75 -40 -75 -4 0 -23 31 -43 70 -20 38 -41 72 -45 75 -5 2 -43 6
-84 7 -68 3 -78 1 -101 -21 -26 -24 -26 -24 -26 -3 0 20 -5 22 -55 22 l-55 0
0 -127 -1 -128 -19 36 -19 37 -43 -15 c-80 -27 -170 4 -201 70 -34 70 -12 146
55 188 27 16 45 19 93 16 33 -3 69 -8 80 -12 17 -5 24 2 43 40 l22 46 -42 19
c-24 11 -64 20 -90 20 -43 0 -48 3 -54 26 -11 44 5 146 32 201 27 55 64 93
123 122 53 27 95 37 49 11 -85 -46 -155 -151 -166 -246 l-5 -44 69 0 c82 0
141 24 172 68 12 16 35 71 52 120 16 50 38 109 50 131 11 22 20 43 20 46 0 14
-178 3 -227 -14z m1958 -690 c32 -26 22 -33 -47 -29 l-59 3 23 23 c27 27 52
28 83 3z m310 0 c32 -26 22 -33 -47 -29 l-59 3 23 23 c27 27 52 28 83 3z
m-1451 -27 c23 -22 18 -83 -9 -105 -61 -49 -139 12 -111 86 17 44 83 55 120
19z m298 -5 c-6 -16 -8 -48 -4 -70 5 -34 4 -39 -13 -39 -24 0 -31 19 -31 86 0
53 0 54 29 54 29 0 30 -1 19 -31z m235 -1 c24 -28 21 -65 -8 -93 -56 -57 -141
-3 -114 73 18 53 85 64 122 20z m1260 0 c24 -28 21 -65 -8 -93 -56 -57 -141
-3 -114 73 18 53 85 64 122 20z"/>
<path d="M900 3363 c-44 -6 -100 -24 -99 -31 0 -4 28 -41 63 -82 72 -86 101
-100 171 -80 26 7 45 18 45 27 0 24 -83 103 -125 119 l-40 15 40 -6 c77 -13
114 -43 146 -121 l20 -49 -6 43 c-9 68 -30 109 -72 135 -38 25 -96 37 -143 30z"/>
</g>
</svg>
